<?xml version="1.0" encoding="utf-8"?>
<!-- Generator: Adobe Illustrator 21.0.0, SVG Export Plug-In . SVG Version: 6.00 Build 0)  -->
<svg version="1.1" id="Layer_1" xmlns="http://www.w3.org/2000/svg" xmlns:xlink="http://www.w3.org/1999/xlink" x="0px" y="0px"
	 viewBox="0 0 80.5 80.7" style="enable-background:new 0 0 80.5 80.7;" xml:space="preserve">
<style type="text/css">
	.st0{fill-rule:evenodd;clip-rule:evenodd;fill:#fff;}
</style>
<path class="st0" d="M4.4,44.1c12.6-1.5,29-19.8,32.7-31.4c0.1-0.4,0.5-0.6,0.9-0.5l1.4,0.4c0.2,0.1,0.4,0.2,0.5,0.4
	c0.1,0.2,0.1,0.4,0.1,0.6l-0.9,2.6c-0.3,0.9,0.2,1.8,1,2.1l2.8,1c0.9,0.3,1.8-0.2,2.1-1l1-3.1c0.1-0.4,0.5-0.6,0.9-0.5l1.6,0.4
	c0.2,0.1,0.4,0.2,0.5,0.4c0.1,0.2,0.1,0.4,0,0.6C43.6,30.8,24.1,54.3,7.5,55.9c-0.4,0-0.7-0.2-0.8-0.6l-0.4-1.5
	c-0.1-0.2,0-0.4,0.1-0.6c0.1-0.2,0.3-0.3,0.5-0.4L8,52.7c0.9-0.2,1.5-1,1.3-1.9l-0.6-3c-0.2-0.9-1-1.5-1.9-1.3L5,46.8
	c-0.4,0.1-0.8-0.2-0.9-0.5l-0.3-1.2c-0.1-0.2,0-0.4,0.1-0.6C4,44.3,4.2,44.2,4.4,44.1z"/>
<path class="st0" d="M1.5,70.6c8.4,11.1,52.3-15.4,61.2-46.7l0.8,1.1c0.1,0.2,0.2,0.4,0.1,0.7l-1.8,5.6c-0.3,0.8,0.1,2.1,0.8,2.8
	l2.3,2.3c0.7,0.7,1.5,0.6,1.8-0.3l1.4-4.4l0.6,0.8c0.1,0.2,0.2,0.4,0.1,0.7c-9.6,33.1-65.9,63.8-68.7,38c0-0.3,0.1-0.7,0.5-0.8
	C0.9,70.2,1.3,70.3,1.5,70.6z"/>
<ellipse transform="matrix(0.3059 -0.9521 0.9521 0.3059 14.1867 51.8034)" class="st0" cx="42.6" cy="16.2" rx="1" ry="1.9"/>
<ellipse transform="matrix(0.9843 -0.1767 0.1767 0.9843 -8.753 2.028)" class="st0" cx="7" cy="50.2" rx="1" ry="1.9"/>
<path class="st0" d="M63.6,30c0.3-0.4,1.2,0.1,2,1.2c0.8,1,1.2,2.2,0.8,2.6c-0.3,0.4-1.2-0.1-2-1.2C63.6,31.5,63.3,30.4,63.6,30z"/>
<path class="st0" d="M51.5,9.2c0.3,2.9-0.1,5.6-1,8.3c-3.3,10-13.7,21.6-21.6,28.7c-0.2,0.1-0.2,0.3-0.3,0.5c0,0.2,0.1,0.4,0.2,0.6
	l0.6,0.6c0.1,0.2,0.3,0.2,0.5,0.2c0.2,0,0.4-0.1,0.5-0.2l4.5-4.4c0.9-0.8,2.2-0.8,3.1,0l2.7,2.8c0.8,0.9,0.8,2.2,0,3.1L36.3,54
	c-0.3,0.3-0.3,0.8,0,1.1l0.3,0.3c0.3,0.3,0.8,0.3,1.1,0c9.3-8.1,16.9-17.1,21.8-27.8c1.5-3.2,3.4-7.4,2.4-10.9
	c-1.1-4.1-5.4-5.9-9-8.2c-0.3-0.2-0.6-0.2-0.8,0C51.6,8.6,51.5,8.9,51.5,9.2z"/>
<path class="st0" d="M6.6,58.1c1.8,0.2,3.6-0.1,5.3-0.8c0.3-0.1,0.7,0,0.9,0.3l0.2,0.3c0.2,0.2,0.2,0.5,0.1,0.7
	c-0.1,0.2-0.3,0.4-0.5,0.5l-2.8,0.9c-1,0.3-1.3,1.3-0.5,2.2l2.6,3c0.8,0.9,2.3,1.4,3.3,1.1l3.5-1.1c0.3-0.1,0.6,0,0.8,0.2l0.3,0.3
	c0.2,0.2,0.2,0.5,0.2,0.7c-0.1,0.3-0.3,0.5-0.5,0.5c-0.9,0.3-1.9,0.5-2.8,0.6c-2.5,0.3-2.9,0.2-4.8-1.4c-2.4-2-4.4-4.2-6.1-6.9
	c-0.2-0.3-0.2-0.6,0-0.8C6.1,58.2,6.3,58,6.6,58.1z"/>
<path class="st0" d="M18.6,1.5c8.7,7.8,4.7,15.9-4.5,24.1c-0.3,0.2-0.3,0.6-0.2,1l0,0c0.1,0.2,0.3,0.3,0.5,0.4c0.2,0,0.5,0,0.6-0.2
	l1.8-1.6c0.7-0.6,1.7-0.5,2.3,0.2l2,2.3c0.6,0.7,0.5,1.7-0.2,2.3l-3,2.6c-0.3,0.2-0.3,0.6-0.2,1l0.4,0.6c0.1,0.2,0.3,0.3,0.5,0.4
	c0.2,0,0.5,0,0.6-0.2C28.6,26.1,34.7,17,35.5,11C36.4,5,32-1,19,0.1c-0.3,0-0.6,0.2-0.7,0.5C18.3,1,18.3,1.3,18.6,1.5z"/>
<path class="st0" d="M1.6,30.2c-1.3,4-3.3,11.2,0.9,12.6c1.1,0.4,2.4,0.2,3.8-0.4c0.3-0.1,0.5-0.4,0.5-0.7l0-1.2
	c0-0.4-0.3-0.7-0.8-0.7l-1.3,0c-0.9,0-1.7-0.8-1.6-1.7l0-3c0-0.9,0.8-1.7,1.7-1.6l1,0c0.2,0,0.4-0.1,0.6-0.2
	c0.2-0.2,0.2-0.3,0.2-0.6l0-1.4c0-0.2-0.1-0.4-0.3-0.6c-0.2-0.1-0.4-0.2-0.6-0.2c-1.2,0.2-2.1,0-2.7-0.6c-0.2-0.2-0.5-0.3-0.7-0.2
	C1.9,29.8,1.7,29.9,1.6,30.2z"/>
<ellipse transform="matrix(0.7927 -0.6096 0.6096 0.7927 -13.4632 17.0196)" class="st0" cx="18.3" cy="28.3" rx="1" ry="1.9"/>
<path class="st0" d="M11.8,61.5c0.3-0.3,1.1,0.1,1.8,0.8c0.7,0.8,1.1,1.6,0.8,2c-0.3,0.3-1.1-0.1-1.8-0.8
	C11.9,62.7,11.6,61.9,11.8,61.5z"/>
<path class="st0" d="M4.7,34.5c0.3-0.1,0.6,0.9,0.6,2.1c0,1.2-0.3,2.3-0.6,2.3C4.4,39,4.2,38,4.2,36.8C4.2,35.6,4.4,34.5,4.7,34.5z"
	/>
<circle class="st0" cx="36.6" cy="47.8" r="2.4"/>
<path class="st0" d="M49.7,65c15.3-13.5,28.1-39,25.7-49.1c-0.3-1.3-0.9-2.3-1.9-3.2c-0.3-0.2-0.4-0.6-0.2-1
	c0.2-0.3,0.6-0.5,0.9-0.4c2.3,0.7,3.8,1.9,4.7,3.5c5.5,9.9-2.4,32.8-23.6,53.3c-0.2,0.2-0.6,0.3-0.8,0.1l-0.2-0.1l4.6-5
	c0.4-0.4,0.4-1.1-0.1-1.5l-1.4-1.3c-0.4-0.4-1.1-0.3-1.5,0.1l-5.6,5.4C49.8,66.5,49.1,65.5,49.7,65z"/>
<path class="st0" d="M56.4,62.7c0.5,0.3,0.5,1.1,0,1.8c-0.5,0.6-1.2,0.9-1.7,0.5c-0.5-0.3-0.5-1.1,0-1.8
	C55.2,62.6,56,62.4,56.4,62.7z"/>
</svg>
